<svg xmlns="http://www.w3.org/2000/svg" width="245.6" height="35" viewBox="0 0 245.6 35"><rect class="svg__rect" x="0" y="0" width="115.31" height="35" fill="#31C4F3"/><rect class="svg__rect" x="113.31" y="0" width="132.29" height="35" fill="#389AD5"/><path class="svg__text" d="M15.69 22L14.22 22L14.22 13.47L16.14 13.47L18.60 20.01L21.06 13.47L22.97 13.47L22.97 22L21.49 22L21.49 19.19L21.64 15.43L19.12 22L18.06 22L15.55 15.43L15.69 19.19L15.69 22ZM28.49 22L26.95 22L30.17 13.47L31.50 13.47L34.73 22L33.18 22L32.49 20.01L29.18 20.01L28.49 22ZM30.83 15.28L29.60 18.82L32.07 18.82L30.83 15.28ZM41.14 22L38.69 22L38.69 13.47L41.21 13.47Q42.34 13.47 43.21 13.97Q44.09 14.48 44.57 15.40Q45.05 16.33 45.05 17.52L45.05 17.52L45.05 17.95Q45.05 19.16 44.57 20.08Q44.08 21.00 43.19 21.50Q42.30 22 41.14 22L41.14 22ZM40.17 14.66L40.17 20.82L41.14 20.82Q42.30 20.82 42.93 20.09Q43.55 19.36 43.56 17.99L43.56 17.99L43.56 17.52Q43.56 16.13 42.96 15.40Q42.35 14.66 41.21 14.66L41.21 14.66L40.17 14.66ZM55.09 22L49.51 22L49.51 13.47L55.05 13.47L55.05 14.66L51.00 14.66L51.00 17.02L54.50 17.02L54.50 18.19L51.00 18.19L51.00 20.82L55.09 20.82L55.09 22ZM66.65 22L64.68 13.47L66.15 13.47L67.47 19.88L69.10 13.47L70.34 13.47L71.96 19.89L73.27 13.47L74.74 13.47L72.77 22L71.35 22L69.73 15.77L68.07 22L66.65 22ZM80.38 22L78.90 22L78.90 13.47L80.38 13.47L80.38 22ZM86.87 14.66L84.23 14.66L84.23 13.47L91.00 13.47L91.00 14.66L88.34 14.66L88.34 22L86.87 22L86.87 14.66ZM96.24 22L94.75 22L94.75 13.47L96.24 13.47L96.24 17.02L100.05 17.02L100.05 13.47L101.53 13.47L101.53 22L100.05 22L100.05 18.21L96.24 18.21L96.24 22Z" fill="#FFFFFF"/><path class="svg__text" d="M132.04 22L127.50 22L127.50 13.60L131.80 13.60Q133.40 13.60 134.24 14.19Q135.09 14.79 135.09 15.79L135.09 15.79Q135.09 16.39 134.79 16.87Q134.49 17.34 133.95 17.62L133.95 17.62Q134.68 17.87 135.08 18.41Q135.49 18.94 135.49 19.70L135.49 19.70Q135.49 20.80 134.60 21.40Q133.71 22 132.04 22L132.04 22ZM129.85 18.58L129.85 20.28L131.85 20.28Q133.09 20.28 133.09 19.43L133.09 19.43Q133.09 18.58 131.85 18.58L131.85 18.58L129.85 18.58ZM129.85 15.31L129.85 16.94L131.48 16.94Q132.68 16.94 132.68 16.12L132.68 16.12Q132.68 15.31 131.48 15.31L131.48 15.31L129.85 15.31ZM139.78 17.80L139.78 17.80Q139.78 16.55 140.38 15.55Q140.99 14.56 142.05 14.00Q143.11 13.43 144.44 13.43L144.44 13.43Q145.77 13.43 146.84 14.00Q147.90 14.56 148.51 15.55Q149.11 16.55 149.11 17.80L149.11 17.80Q149.11 19.05 148.51 20.04Q147.90 21.04 146.84 21.60Q145.78 22.17 144.44 22.17L144.44 22.17Q143.11 22.17 142.05 21.60Q140.99 21.04 140.38 20.04Q139.78 19.05 139.78 17.80ZM142.18 17.80L142.18 17.80Q142.18 18.51 142.48 19.05Q142.78 19.60 143.29 19.90Q143.81 20.20 144.44 20.20L144.44 20.20Q145.08 20.20 145.60 19.90Q146.11 19.60 146.41 19.05Q146.71 18.51 146.71 17.80L146.71 17.80Q146.71 17.09 146.41 16.54Q146.11 16 145.60 15.70Q145.08 15.40 144.44 15.40L144.44 15.40Q143.80 15.40 143.29 15.70Q142.78 16 142.48 16.54Q142.18 17.09 142.18 17.80ZM153.41 17.80L153.41 17.80Q153.41 16.55 154.02 15.55Q154.62 14.56 155.68 14.00Q156.75 13.43 158.08 13.43L158.08 13.43Q159.41 13.43 160.47 14.00Q161.53 14.56 162.14 15.55Q162.75 16.55 162.75 17.80L162.75 17.80Q162.75 19.05 162.14 20.04Q161.53 21.04 160.47 21.60Q159.41 22.17 158.08 22.17L158.08 22.17Q156.75 22.17 155.68 21.60Q154.62 21.04 154.02 20.04Q153.41 19.05 153.41 17.80ZM155.81 17.80L155.81 17.80Q155.81 18.51 156.11 19.05Q156.41 19.60 156.93 19.90Q157.45 20.20 158.08 20.20L158.08 20.20Q158.72 20.20 159.23 19.90Q159.75 19.60 160.05 19.05Q160.35 18.51 160.35 17.80L160.35 17.80Q160.35 17.09 160.05 16.54Q159.75 16 159.23 15.70Q158.72 15.40 158.08 15.40L158.08 15.40Q157.44 15.40 156.93 15.70Q156.41 16 156.11 16.54Q155.81 17.09 155.81 17.80ZM169.27 15.48L166.69 15.48L166.69 13.60L174.21 13.60L174.21 15.48L171.64 15.48L171.64 22L169.27 22L169.27 15.48ZM177.99 21.24L177.99 21.24L178.77 19.49Q179.34 19.86 180.08 20.09Q180.82 20.32 181.54 20.32L181.54 20.32Q182.91 20.32 182.92 19.64L182.92 19.64Q182.92 19.28 182.53 19.11Q182.14 18.93 181.27 18.74L181.27 18.74Q180.32 18.53 179.68 18.30Q179.05 18.06 178.59 17.55Q178.14 17.03 178.14 16.16L178.14 16.16Q178.14 15.39 178.56 14.77Q178.98 14.15 179.81 13.79Q180.65 13.43 181.86 13.43L181.86 13.43Q182.68 13.43 183.49 13.62Q184.29 13.80 184.91 14.17L184.91 14.17L184.18 15.93Q182.97 15.28 181.84 15.28L181.84 15.28Q181.13 15.28 180.81 15.49Q180.49 15.70 180.49 16.04L180.49 16.04Q180.49 16.37 180.87 16.54Q181.26 16.71 182.11 16.89L182.11 16.89Q183.07 17.10 183.70 17.33Q184.33 17.56 184.79 18.07Q185.25 18.58 185.25 19.46L185.25 19.46Q185.25 20.21 184.83 20.83Q184.42 21.44 183.58 21.80Q182.73 22.17 181.53 22.17L181.53 22.17Q180.51 22.17 179.55 21.92Q178.59 21.67 177.99 21.24ZM191.62 15.48L189.04 15.48L189.04 13.60L196.56 13.60L196.56 15.48L194.00 15.48L194.00 22L191.62 22L191.62 15.48ZM203.31 22L200.93 22L200.93 13.60L204.78 13.60Q205.92 13.60 206.76 13.98Q207.60 14.35 208.05 15.06Q208.51 15.76 208.51 16.71L208.51 16.71Q208.51 17.62 208.08 18.30Q207.65 18.98 206.86 19.36L206.86 19.36L208.67 22L206.13 22L204.61 19.77L203.31 19.77L203.31 22ZM203.31 15.47L203.31 17.93L204.63 17.93Q205.36 17.93 205.74 17.61Q206.11 17.29 206.11 16.71L206.11 16.71Q206.11 16.12 205.74 15.79Q205.36 15.47 204.63 15.47L204.63 15.47L203.31 15.47ZM214.71 22L212.29 22L216.00 13.60L218.34 13.60L222.06 22L219.59 22L218.93 20.37L215.38 20.37L214.71 22ZM217.15 15.93L216.07 18.61L218.23 18.61L217.15 15.93ZM228.59 22L226.21 22L226.21 13.60L230.05 13.60Q231.19 13.60 232.03 13.98Q232.87 14.35 233.33 15.06Q233.79 15.76 233.79 16.71L233.79 16.71Q233.79 17.66 233.33 18.35Q232.87 19.05 232.03 19.42Q231.19 19.80 230.05 19.80L230.05 19.80L228.59 19.80L228.59 22ZM228.59 15.47L228.59 17.93L229.91 17.93Q230.64 17.93 231.01 17.61Q231.38 17.29 231.38 16.71L231.38 16.71Q231.38 16.12 231.01 15.80Q230.64 15.47 229.91 15.47L229.91 15.47L228.59 15.47Z" fill="#FFFFFF" x="126.31"/></svg>